<?xml version="1.0" encoding="utf-8"?>
<!-- Generator: Adobe Illustrator 15.1.0, SVG Export Plug-In . SVG Version: 6.00 Build 0)  -->
<!DOCTYPE svg PUBLIC "-//W3C//DTD SVG 1.1//EN" "http://www.w3.org/Graphics/SVG/1.1/DTD/svg11.dtd">
<svg version="1.1" id="Layer_2" xmlns="http://www.w3.org/2000/svg" xmlns:xlink="http://www.w3.org/1999/xlink" x="0px" y="0px"
	 width="598.151px" height="283.637px" viewBox="0 0 598.151 283.637" enable-background="new 0 0 598.151 283.637"
	 xml:space="preserve">
<path fill="#E9E9E9" d="M439.419,5.049c1.766,4.539-9.675,13.236-25.56,19.399c-15.836,6.193-30.145,7.529-31.914,2.992
	c-1.768-4.539,9.674-13.209,25.559-19.399C423.34,1.852,437.65,0.514,439.419,5.049z"/>
<path fill="#E9E9E9" d="M587.399,113.964c-0.811,10.917-5.365,19.803-13.365,23.833c-15.24,7.674-37.203-5.186-49.057-28.7
	c-7.234-14.371-9.031-29.396-5.869-40.645l-0.006,0.006c1.305,1.227,2.631,2.475,3.977,3.723
	c25.225,23.381,50.471,39.387,64.316,41.791L587.399,113.964z"/>
<path fill="#E9E9E9" d="M587.395,113.972c-13.846-2.404-39.092-18.41-64.316-41.791c-1.346-1.248-2.672-2.496-3.977-3.723
	l0.006-0.006c2.021-7.193,6.062-12.859,12-15.848c15.24-7.676,37.201,5.184,49.057,28.702c5.631,11.178,7.967,22.76,7.234,32.658
	L587.395,113.972z"/>
<path fill="#E9E9E9" d="M587.399,113.964c0.732-9.898-1.604-21.48-7.234-32.658c-11.855-23.518-33.816-36.377-49.057-28.702
	c-5.938,2.988-9.979,8.654-12,15.848v0.014c0,0-0.002-0.004-0.006-0.008C488.658,39.22,470.216,10.01,477.609,2.034
	c1.654-1.783,4.469-2.361,8.197-1.861l0.006,0.002c53.87,9.934,97.188,50.153,111.612,102.38l-0.004,0.004
	c1.186,4.344,0.957,7.688-0.904,9.691c-1.785,1.936-4.93,2.449-9.121,1.723L587.399,113.964z"/>
<g>
	<path fill="#E9E9E9" d="M457.754,223.951c35.581-1.923,63.79-31.377,63.79-67.388c0-37.302-30.189-67.518-67.493-67.518
		c-13.07,0-25.266,3.723-35.604,10.151c6.455,9.099,12.821,19.983,18.427,32.945C448.118,158.141,459.386,194.038,457.754,223.951z"
		/>
	<path fill="#E9E9E9" d="M407.448,250.079c10.766-3.991,28.712-7.303,47.904-9.358c0.518-2.281,0.988-4.689,1.401-7.248
		c0.499-3.088,0.823-6.271,1.001-9.521c-1.227,0.066-2.46,0.105-3.703,0.105c-37.302,0-67.492-30.239-67.492-67.493
		c0-24.232,12.768-45.449,31.888-57.366c-14.643-20.711-29.799-31.983-37.532-36.482c-13.627-7.928-34.931-13.371-48.737,13.794
		c-9.769,19.202-15.074,41.007-15.074,63.993c0,56.771,33.074,105.854,81.04,128.988C388.296,264.586,384.7,258.475,407.448,250.079
		z"/>
	<path fill="#E9E9E9" d="M386.559,156.563c0,37.254,30.19,67.493,67.492,67.493c1.243,0,2.477-0.039,3.703-0.105
		c1.632-29.913-9.637-65.811-20.881-91.809c-5.605-12.962-11.972-23.846-18.427-32.945
		C399.327,111.115,386.559,132.331,386.559,156.563z"/>
	<path fill="#E9E9E9" d="M522.83,240.227c-16.252-2.71-42.888-2.14-67.478,0.494c-9.125,40.223-33.706,38.5-47.762,32.917
		c-3.209-1.27-6.141-2.548-9.23-4.038c0.072,0.036-0.074-0.036,0,0c18.604,9.169,39.682,14.037,61.854,14.037
		c30.209,0,58.184-9.355,81.284-25.327C550.41,252.148,551.627,245.014,522.83,240.227z"/>
	<path fill="#E9E9E9" d="M455.352,240.721c-19.192,2.056-37.139,5.367-47.904,9.358c-22.748,8.396-19.151,14.507-9.305,19.411
		c3.09,1.49,6.238,2.878,9.447,4.147C421.646,279.221,446.227,280.943,455.352,240.721z"/>
</g>
<g>
	<g>
		<path fill="#E9E9E9" d="M126.359,149.867c23.275-14.142,18.81-55.85-23.04-55.85h-90.48C5.824,94.017,0,99.792,0,106.816v98.729
			c0,7.014,5.824,12.82,12.839,12.82H91.64C154.303,218.365,162.128,162.609,126.359,149.867z M47.213,113.468h48.634
			c27.73,0,26.364,30.085-3.69,30.085H47.213V113.468z M86.456,197.543H47.213v-34.42h50.264
			C125.938,163.135,126.209,197.543,86.456,197.543z"/>
		<path fill="#E9E9E9" d="M285.215,94.037H153.998c-5.724,0-11.652,4.66-11.652,10.402c0,5.727,5.928,10.375,11.652,10.375h43.583
			v90.731c0,6.98,5.822,12.82,12.843,12.82h20.397c7.063,0,12.831-5.84,12.831-12.82v-90.731h41.563
			c5.698,0,11.605-4.648,11.605-10.375C296.821,98.697,290.913,94.037,285.215,94.037z"/>
	</g>
</g>
</svg>
