<?xml version="1.0" encoding="utf-8"?>
<!-- Generator: Adobe Illustrator 15.1.0, SVG Export Plug-In . SVG Version: 6.00 Build 0)  -->
<!DOCTYPE svg PUBLIC "-//W3C//DTD SVG 1.1//EN" "http://www.w3.org/Graphics/SVG/1.1/DTD/svg11.dtd">
<svg version="1.1" id="Layer_1" xmlns="http://www.w3.org/2000/svg" xmlns:xlink="http://www.w3.org/1999/xlink" x="0px" y="0px"
	 width="180.653px" height="62.001px" viewBox="0 0 180.653 62.001" enable-background="new 0 0 180.653 62.001"
	 xml:space="preserve">
<linearGradient id="SVGID_1_" gradientUnits="userSpaceOnUse" x1="90.3271" y1="0" x2="90.3271" y2="62.0015">
	<stop  offset="0" style="stop-color:#70C8F2"/>
	<stop  offset="0.1628" style="stop-color:#6FB9E7"/>
	<stop  offset="0.3763" style="stop-color:#6EA8DB"/>
	<stop  offset="0.5889" style="stop-color:#6E9BD2"/>
	<stop  offset="0.7981" style="stop-color:#6F93CD"/>
	<stop  offset="1" style="stop-color:#6F91CB"/>
</linearGradient>
<path fill="url(#SVGID_1_)" d="M155.974,0l11.44,30.999l-11.44,31.002h-8.087l11.618-31.002L147.887,0H155.974z M39.234,1.954
	l-7.628,7.622c-1.295,1.299-1.945,2.882-1.945,4.646v33.558c0,1.763,0.649,3.343,1.945,4.648l7.628,7.62
	c1.301,1.301,2.878,1.953,4.647,1.953h2.982v-8.185h-1.589c-0.562,0-0.933-0.182-1.303-0.548l-5.297-5.302
	c-0.371-0.376-0.558-0.837-0.558-1.303V15.341c0-0.47,0.188-0.932,0.558-1.301l5.297-5.298c0.37-0.373,0.741-0.562,1.303-0.562
	h1.589V0h-2.982C42.112,0,40.535,0.652,39.234,1.954z M58.811,1.954C57.51,0.652,55.936,0,54.165,0h-2.982v8.18h1.589
	c0.56,0,0.933,0.188,1.302,0.562l5.298,5.298c0.371,0.369,0.559,0.831,0.559,1.301v31.323c0,0.466-0.188,0.927-0.559,1.303
	l-5.298,5.302c-0.37,0.366-0.742,0.548-1.302,0.548h-1.589v8.185h2.982c1.771,0,3.345-0.652,4.646-1.953l7.628-7.62
	c1.293-1.306,1.944-2.886,1.944-4.648V14.221c0-1.764-0.651-3.347-1.944-4.646L58.811,1.954z M9.575,1.954L1.946,9.575
	C0.652,10.875,0,12.457,0,14.221v33.558c0,1.763,0.652,3.343,1.946,4.648l7.629,7.62c1.301,1.301,2.875,1.953,4.646,1.953h5.02
	v-8.185h-3.627c-0.559,0-0.931-0.182-1.3-0.548l-5.298-5.302c-0.371-0.376-0.562-0.837-0.562-1.303V15.341
	c0-0.47,0.191-0.932,0.562-1.301l5.298-5.298c0.37-0.373,0.741-0.562,1.3-0.562h3.627V0h-5.02C12.45,0,10.876,0.652,9.575,1.954z
	 M173.165,0l-3.559,8.974h7.657L180.653,0H173.165z M75.895,62.001h7.899L98.571,0h-7.725L75.895,62.001z M101.923,62.001h7.343
	v-7.343h-7.343V62.001z M132.49,0h-15.805v7.251h12.283v47.407h-12.283v7.343h15.677c1.82,0,4.505-0.72,4.505-5.581V5.571
	C136.867,0.824,134.288,0,132.49,0z"/>
</svg>
