<?xml version="1.0" encoding="utf-8"?>
<!-- Generator: Adobe Illustrator 15.1.0, SVG Export Plug-In . SVG Version: 6.00 Build 0)  -->
<!DOCTYPE svg PUBLIC "-//W3C//DTD SVG 1.1//EN" "http://www.w3.org/Graphics/SVG/1.1/DTD/svg11.dtd">
<svg version="1.1" id="Layer_1" xmlns="http://www.w3.org/2000/svg" xmlns:xlink="http://www.w3.org/1999/xlink" x="0px" y="0px"
	 width="175.748px" height="51.506px" viewBox="0 0 175.748 51.506" enable-background="new 0 0 175.748 51.506"
	 xml:space="preserve">
<path fill-rule="evenodd" clip-rule="evenodd" fill="#EBE9E7" d="M93.829,4.884C94.43,5.142,95.2,4.97,95.715,4.713
	c0.086,0,0.428-0.085,0.428,0.085l0.515,6.256h-1.114c-0.686-3-3.685-5.913-6.77-6.341c-3.941-0.6-7.711,0.514-10.111,3.685
	c-3.17,4.113-3.256,11.14-0.6,15.51c2.399,4.027,6.684,6.083,11.311,5.226c2.741-0.428,5.227-2.57,6.684-4.969l0.856,0.257
	c-0.6,1.714-1.113,3.427-2.057,4.97c-2.313-0.258-4.198,0.943-6.341,1.113c-5.913,0.771-11.311-1.541-14.567-6.511
	c-2.571-4.028-2.228-10.197,0.343-14.139c3.513-5.656,10.197-7.455,16.624-5.913C91.944,4.199,92.887,4.542,93.829,4.884
	L93.829,4.884z"/>
<path fill-rule="evenodd" clip-rule="evenodd" fill="#EBE9E7" d="M120.821,4.97c0.515,0.171,1.028-0.086,1.543-0.257h0.428
	l0.515,6.341h-1.028c-0.257-0.6-0.515-1.286-0.771-1.885c-1.8-3.514-5.483-4.884-9.254-4.542c-3.6,0.171-7.112,2.828-8.312,6.255
	c-1.885,4.627-1.371,10.883,1.971,14.653c2.914,3.428,7.455,4.627,11.74,3.17c2.056-0.686,3.941-2.656,5.141-4.542l0.857,0.257
	c-0.6,1.714-1.2,3.427-2.057,4.97c-2.57-0.258-4.542,1.199-7.026,1.199c-5.913,0.516-11.396-2.057-14.311-7.283
	c-2.399-4.627-1.542-11.139,1.886-15.081c3.941-4.627,10.454-5.827,16.28-4.113C119.193,4.37,119.965,4.713,120.821,4.97
	L120.821,4.97z"/>
<path fill-rule="evenodd" clip-rule="evenodd" fill="#EBE9E7" d="M44.559,4.456c0.343,0,0.6-0.257,0.857-0.428
	c0.171,0,0.514-0.086,0.428,0.257l0.686,5.141c-0.257,0.085-0.429,0.257-0.771,0.257c-0.514-2.056-2.313-4.198-4.542-4.627
	c-1.885-0.257-4.027-0.085-5.227,1.542c-0.686,0.942-0.6,2.485-0.171,3.513c0.856,1.714,2.656,2.913,4.198,3.942
	c3.171,2.056,8.141,4.627,8.055,9.168c0,2.742-1.542,5.228-3.942,6.513c-1.885,1.027-4.542,1.285-6.684,0.6
	c-1.114-0.172-2.228-1.029-3.428-0.43c-0.171,0.258-0.429,0.258-0.686,0.43c-0.428-2.229-0.771-4.457-1.114-6.684
	c0.257-0.171,0.6-0.171,0.857-0.257c0.514,2.484,2.399,5.057,4.884,5.656c2.485,0.686,5.055-0.086,6.512-2.229
	c0.771-1.113,0.771-2.999,0.086-4.199c-0.771-1.285-2.143-2.314-3.256-3.171c-3.513-2.57-9.512-5.055-8.826-10.454
	c0.171-2.057,2.056-4.113,4.027-4.799c2.228-0.942,5.056-0.428,7.284,0.171L44.559,4.456L44.559,4.456z"/>
<path fill-rule="evenodd" clip-rule="evenodd" fill="#EBE9E7" d="M24.507,23.393h0.086V7.541c-0.171-0.857-0.771-1.713-1.628-2.142
	c-0.686-0.257-1.542-0.428-2.399-0.514c0-0.257,0-0.514,0-0.771h9.426c0.085,0.257,0,0.514,0,0.771
	c-1.114,0.086-2.313,0.343-2.828,1.457c-0.257,0.6-0.429,1.199-0.429,1.885v21.937l0,0h-1.542L5.741,8.141l0,0v18.167
	c0.086,1.027,0.514,2.057,1.542,2.484c0.686,0.342,1.542,0.428,2.399,0.428c0.085,0.344,0,0.602,0,0.943H0.257
	c-0.086-0.258-0.086-0.6,0-0.943c1.114,0.086,2.142-0.256,2.828-1.285c0.343-0.686,0.6-1.371,0.514-2.227V7.712
	C3.513,6.77,3.085,5.913,2.228,5.398c-0.514-0.171-1.2-0.343-1.8-0.343c-0.085-0.343-0.085-0.686,0-0.942h6.855L24.507,23.393
	L24.507,23.393z"/>
<path fill-rule="evenodd" clip-rule="evenodd" fill="#EBE9E7" d="M69.665,8.655c0.857,2.399,0.514,5.484-0.942,7.541
	c-2.656,3.256-6.855,3.342-10.882,2.999v0.086v7.626c0.171,0.941,1.114,1.799,2.056,2.143c0.515,0.17,1.028,0.17,1.628,0.17
	c0,0.258,0,0.516,0,0.771l-0.086,0.086H51.071c0-0.256,0-0.6,0-0.857c1.114,0.086,2.313-0.342,2.828-1.455
	c0.257-0.516,0.343-1.029,0.343-1.629V8.397c-0.086-1.285-0.686-2.656-2.057-3.17c-0.514-0.171-1.114-0.257-1.713-0.171V4.97V4.113
	c4.541,0.257,9.254-0.6,13.624,0.257C66.323,4.798,68.808,6.255,69.665,8.655L69.665,8.655z M57.84,5.312v12.425l0.085,0.086
	c2.399,0.686,5.312,0.515,7.026-1.542c1.628-2.143,2.057-5.656,0.857-8.141C64.267,5.227,60.839,4.713,57.84,5.312L57.84,5.312z"/>
<path fill-rule="evenodd" clip-rule="evenodd" fill="#EBE9E7" d="M4.97,40.274c0.343,0.857,0.257,1.799,0.257,2.828H5.056H3.171
	v-0.086c-0.086-0.514,0-1.029-0.086-1.543c-0.171-0.086-0.343-0.086-0.514-0.086c-0.171,0.086-0.257,0.172-0.257,0.344
	c0,1.627-0.085,3.342-0.085,4.885c0.085,0.084,0.171,0.17,0.257,0.17c0.257,0.086,0.429,0,0.6-0.17c0.086-0.602,0-1.371,0.086-2.057
	h2.056c0,1.027,0,2.141-0.086,3.084c-0.171,0.6-0.771,1.199-1.371,1.371c-1.028,0.172-2.485,0.258-3.17-0.6
	c-0.514-0.6-0.514-1.285-0.6-2.057c0.086,0,0.086,0,0.086,0C-0.085,46.272,0.171,46.1,0,46.014v-2.398c0.171-0.086,0-0.086,0-0.086
	c0-0.256,0-0.514,0.086-0.686C0,42.674,0.086,42.502,0,42.331c0.086-0.086,0-0.172,0-0.258c0.171-0.086,0-0.086,0-0.17
	c0.086-0.943,0.171-2.057,1.2-2.486c0.942-0.342,2.228-0.342,3.17,0.172C4.627,39.76,4.799,40.016,4.97,40.274L4.97,40.274z"/>
<path fill-rule="evenodd" clip-rule="evenodd" fill="#EBE9E7" d="M56.897,39.331v1.971c-0.6,0.086-1.285,0.086-1.885,0.086v-2.057
	l0.086-0.084h1.714L56.897,39.331L56.897,39.331z"/>
<path fill-rule="evenodd" clip-rule="evenodd" fill="#EBE9E7" d="M59.64,39.331c0.171,0.086,0.171,0.258,0.171,0.43l-0.086,4.883
	c0.086,1.371,0.086,2.828,0.086,4.199l-0.086,0.086h-1.799v-0.086v-9.512C58.525,39.331,59.125,39.247,59.64,39.331L59.64,39.331z"
	/>
<path fill-rule="evenodd" clip-rule="evenodd" fill="#EBE9E7" d="M51.499,39.331c0.086,0.943-0.171,1.971,0,2.914
	c0.257,0.086,0.343-0.258,0.6-0.258c0.343-0.256,1.029-0.342,1.372,0.086c0.771,0.686,0.428,1.887,0.514,2.828
	c0,1.285,0.085,2.656,0,3.941c-0.514,0.086-1.114,0.086-1.628,0.086l-0.085-0.086v-5.227c-0.086-0.172-0.257-0.342-0.429-0.258
	c-0.343,0.172-0.257,0.516-0.257,0.857c0,1.629,0,3.086-0.086,4.713h-1.714L49.7,48.842c0-2.998,0.085-6.34,0-9.426
	c0.257-0.17,0.514-0.086,0.771-0.086H51.499L51.499,39.331z"/>
<path fill-rule="evenodd" clip-rule="evenodd" fill="#EBE9E7" d="M21.937,39.417c0,0.172,0.085,0.344,0.085,0.514l-0.085,5.057
	l0.085,0.172v3.855c-0.6,0.086-1.285,0-1.885,0v-9.598h0.257H21.937L21.937,39.417z"/>
<path fill-rule="evenodd" clip-rule="evenodd" fill="#EBE9E7" d="M137.445,39.846c0,2.312-0.086,4.541,0,6.854
	c0.086,0.172,0.257,0.344,0.514,0.258c0.172-0.086,0.172-0.258,0.257-0.428c0.086-2.229,0.086-4.371,0.086-6.684
	c0.601,0,1.286,0,1.971,0c0,2.484,0.172,5.141-0.257,7.455c-0.257,0.256-0.086,0.686-0.428,0.941c-0.429,0.514-1.114,0.6-1.8,0.6
	c-0.343,0.086-0.857,0-1.2-0.17c-1.199-0.516-1.199-1.973-1.199-3.172v-5.654H137.445L137.445,39.846z"/>
<path fill-rule="evenodd" clip-rule="evenodd" fill="#EBE9E7" d="M102.827,39.93c0,0.602-0.086,1.115-0.086,1.715
	c0.171,0.172,0.514,0,0.6,0.172v1.627c-0.171,0.086-0.429,0-0.6,0.086l0.086,3.342c0.085,0.258,0.428,0.258,0.686,0.258l0.086,0.086
	v1.541l-0.086,0.086c-0.771-0.086-1.8,0.258-2.229-0.514c-0.429-0.857-0.171-2.057-0.257-2.998c0-0.602,0-1.287,0-1.801
	c0-0.256-0.429,0-0.514-0.172v-1.541c0.085-0.172,0.428,0,0.514-0.172c0-0.6,0-1.199,0-1.799h1.714L102.827,39.93L102.827,39.93z"/>
<path fill-rule="evenodd" clip-rule="evenodd" fill="#EBE9E7" d="M134.36,39.93c-0.086,0,0,0.172,0,0.258
	c0,0.514,0.172,1.113,0,1.715c-0.771,0-1.542,0-2.228,0c-0.086,0.428-0.086,0.941-0.086,1.455h0.086c0.514,0,1.113,0,1.628,0.086
	v1.715l-0.086,0.086h-1.542h-0.086v3.598c-0.6,0.086-1.371,0.086-1.971,0c-0.086-2.998,0-5.912,0-8.996
	C131.533,39.846,132.989,39.76,134.36,39.93L134.36,39.93z"/>
<path fill-rule="evenodd" clip-rule="evenodd" fill="#EBE9E7" d="M148.328,39.93c0,2.229,0,4.543,0,6.77l0.085,0.086h2.143
	c0,0.686,0,1.371,0,2.057c-1.371,0.086-2.828,0-4.113,0l-0.086-0.17V39.93l0.086-0.084c0.515,0,0.942,0.084,1.371,0
	C147.985,39.93,148.242,39.76,148.328,39.93L148.328,39.93z"/>
<path fill-rule="evenodd" clip-rule="evenodd" fill="#EBE9E7" d="M143.271,39.846c0.086,0.256-0.085,0.514,0,0.771
	c0,0.6,0,1.285,0,1.799c0.086,1.457,0.086,2.914,0.086,4.369c0.686,0,1.543,0,2.314,0c0,0.686,0.085,1.371,0,2.057l-0.258,0.086
	h-4.027v-0.086l-0.086-8.912l0.086-0.084C142.072,39.846,142.587,39.846,143.271,39.846L143.271,39.846z"/>
<path fill-rule="evenodd" clip-rule="evenodd" fill="#EBE9E7" d="M113.709,39.93c0,0.516-0.085,1.201,0,1.715
	c0.172,0.172,0.343,0.086,0.515,0.172h0.086c0,0.6,0,1.113-0.086,1.627c-0.172,0-0.343,0-0.515,0.086v3.17
	c0,0.172,0.086,0.344,0.258,0.43c0.171,0.086,0.514-0.172,0.514,0.172v1.455l-0.086,0.086c-0.771-0.17-1.971,0.344-2.313-0.686
	c-0.257-1.457-0.086-3.084-0.171-4.627c-0.086-0.172-0.343-0.086-0.429-0.086c-0.086-0.514-0.086-1.113-0.086-1.627
	c0.172-0.086,0.429,0.086,0.515-0.172V39.93v-0.084L113.709,39.93L113.709,39.93z"/>
<path fill-rule="evenodd" clip-rule="evenodd" fill="#EBE9E7" d="M163.666,40.016c0,0.602,0,1.371-0.086,1.971
	c-0.429,0-0.856,0-1.285,0.086c0,0.686,0,1.457,0,2.143l0.086,4.285c-0.086,0.086-0.257,0.256-0.343,0.342h-1.628l-0.086-0.086
	c0-2.141,0-4.455-0.086-6.684v-0.086h-1.285l-0.086-0.084v-1.887h0.086c1.542,0,3.085-0.086,4.541-0.086L163.666,40.016
	L163.666,40.016z"/>
<path fill-rule="evenodd" clip-rule="evenodd" fill="#EBE9E7" d="M36.161,40.016c0,0.686-0.085,1.285,0,1.887
	c0.086,0.084,0.343-0.086,0.514,0c0,0.514,0,1.113,0,1.627c-0.171,0.086-0.428,0-0.6,0.086c0,1.113,0,2.229,0.085,3.342
	c0.172,0.344,0.514,0.258,0.771,0.344c0,0.428,0,1.027,0,1.541l-0.086,0.086c-0.686-0.086-1.542,0.344-2.057-0.256
	c-0.514-0.686-0.343-1.715-0.428-2.486c-0.085-0.855,0.085-1.713,0-2.57c-0.085-0.172-0.429,0-0.514-0.172
	c0.085-0.342-0.085-0.77,0.085-1.113c-0.085-0.172-0.085-0.258-0.085-0.344c0.171-0.084,0.343,0,0.514-0.17
	c0-0.6-0.085-1.199-0.085-1.801c0.6,0,1.114-0.086,1.799-0.086L36.161,40.016L36.161,40.016z"/>
<path fill-rule="evenodd" clip-rule="evenodd" fill="#EBE9E7" d="M157.496,40.446c0.686,0.6,0.771,1.627,0.771,2.57l-0.171,0.086
	h-1.457c-0.086-0.428,0-1.029-0.429-1.285c-0.343,0-0.514,0.086-0.686,0.342c0,0.258-0.086,0.686,0.086,0.857
	c0.856,0.6,2.143,0.686,2.57,1.799c0.172,0.258,0.086,0.686,0.257,1.029c0.086,1.113-0.171,2.398-1.285,2.912
	c-0.771,0.43-1.971,0.344-2.656-0.084c-0.686-0.516-0.856-1.287-0.942-2.057c0.086-0.258-0.086-0.602,0.171-0.686
	c0.515-0.086,0.943-0.172,1.543-0.086c0.086,0.17,0,0.428,0.086,0.6c0,0.256,0.085,0.514,0.343,0.686
	c0.257,0.086,0.514,0.086,0.686-0.172c0.171-0.172,0.257-0.6,0.171-0.857c-0.856-0.941-2.313-0.77-2.656-2.057
	c-0.086-0.256-0.086-0.428-0.257-0.6c-0.172-1.027,0-2.227,0.771-2.912c0.686-0.344,1.371-0.771,2.229-0.516L157.496,40.446
	L157.496,40.446z"/>
<path fill-rule="evenodd" clip-rule="evenodd" fill="#EBE9E7" d="M24.936,40.016c0.086,0.602,0,1.285,0,1.801
	c0.086,0.256,0.6-0.086,0.6,0.256v1.457c-0.257,0.086-0.429-0.086-0.6,0.086c0,1.199,0,2.229,0.086,3.342
	c0.085,0.344,0.514,0.258,0.771,0.344c0,0.514,0.085,1.113,0,1.627h-0.086c-0.685-0.086-1.542,0.344-2.057-0.256
	c-0.514-0.686-0.342-1.629-0.342-2.4c-0.171-0.771,0-1.799-0.086-2.656c-0.171-0.086-0.428,0-0.514-0.086
	c0.086-0.428-0.085-0.771,0.086-1.027c0-0.172-0.086-0.344-0.086-0.516c0.086-0.17,0.343,0,0.514-0.084c0-0.602-0.085-1.285,0-1.887
	C23.822,40.016,24.336,39.93,24.936,40.016L24.936,40.016z"/>
<path fill-rule="evenodd" clip-rule="evenodd" fill="#EBE9E7" d="M78.663,42.159c0.514,0.943,0.257,2.314,0.343,3.428
	c0,0.514,0.085,1.113-0.085,1.715l0.085,0.17v1.371H78.92h-1.628l-0.085-0.17v-5.057c0-0.086-0.086-0.258-0.257-0.258
	c-0.085,0-0.171,0-0.257,0.086c-0.257,0.344-0.086,0.857-0.172,1.285l0.086,4.027c-0.6,0.086-1.285,0.086-1.799,0.086
	c-0.086-2.312-0.086-4.627-0.086-7.025c0.257-0.172,0.6-0.086,0.942-0.172c0.257,0.172,0.515,0,0.686,0
	c0.257,0.172,0,0.514,0.257,0.514c0.257-0.428,0.771-0.6,1.286-0.514C78.148,41.817,78.491,41.903,78.663,42.159L78.663,42.159z"/>
<path fill-rule="evenodd" clip-rule="evenodd" fill="#EBE9E7" d="M87.06,42.331c0.343-0.514,1.028-0.771,1.628-0.6
	c1.199,0.6,1.028,2.057,1.028,3.256v3.855c-0.515,0-1.2,0-1.714,0c-0.085-1.713,0-3.598,0-5.312
	c-0.085-0.086-0.171-0.172-0.257-0.172c-0.171-0.084-0.343,0.086-0.343,0.172c-0.171,1.801-0.171,3.428-0.086,5.312
	c-0.6,0-1.199,0-1.799,0c0-1.713-0.085-3.598-0.085-5.312c-0.086-0.172-0.171-0.256-0.429-0.172l-0.171,0.172
	c-0.085,1.715,0,3.6-0.085,5.312h-1.714c-0.086-2.227-0.086-4.799-0.086-7.025c0.6-0.086,1.2-0.086,1.8-0.086
	c0.085,0.172-0.086,0.428,0.085,0.514c0.429-0.428,0.943-0.686,1.542-0.514C86.717,41.817,86.889,42.073,87.06,42.331L87.06,42.331z
	"/>
<path fill-rule="evenodd" clip-rule="evenodd" fill="#EBE9E7" d="M110.71,42.588c0.172,0.428,0.172,0.855,0.172,1.285l-1.371,0.086
	c-0.257-0.258-0.086-0.602-0.343-0.771c-0.172,0-0.257-0.086-0.429,0c-0.171,0.086-0.257,0.342-0.257,0.514
	c0.171,0.771,1.114,0.514,1.714,0.941c0.856,0.516,0.942,1.629,0.942,2.572c-0.086,0.428-0.257,0.771-0.515,1.113
	c-0.6,0.686-1.713,0.6-2.57,0.428c-0.514-0.17-1.028-0.514-1.114-1.027c-0.171-0.428-0.171-0.857-0.171-1.285
	c0.514-0.086,1.028-0.086,1.543-0.086c0.171,0.342,0.085,0.943,0.6,0.943c0.257,0,0.428-0.086,0.514-0.344
	c0.086-0.342-0.086-0.6-0.343-0.771c-0.942-0.428-2.228-0.6-2.313-1.799c-0.086-0.771,0-1.629,0.6-2.229
	c0.6-0.514,1.543-0.514,2.399-0.342C110.11,41.903,110.453,42.159,110.71,42.588L110.71,42.588z"/>
<path fill-rule="evenodd" clip-rule="evenodd" fill="#EBE9E7" d="M99.399,42.159c0.429,0.43,0.6,1.029,0.6,1.715h-0.171
	c-0.343,0.086-0.857,0.086-1.286,0.086c-0.171-0.258,0-0.857-0.514-0.857c-0.343,0.086-0.429,0.256-0.515,0.514
	c0,0.258,0.086,0.428,0.343,0.514c0.601,0.172,1.2,0.344,1.714,0.771c0.686,0.6,0.686,1.543,0.601,2.4
	c-0.086,0.514-0.515,1.027-0.943,1.371c-0.856,0.256-2.142,0.342-2.827-0.344c-0.429-0.514-0.6-1.199-0.515-1.885
	c0.515-0.172,1.028,0,1.543-0.086c0.085,0.342,0,0.771,0.428,0.943c0.172,0,0.429-0.086,0.601-0.258
	c0.085-0.172,0-0.514-0.086-0.686c-0.515-0.514-1.285-0.428-1.8-0.857c-0.6-0.428-0.856-1.199-0.686-1.971
	c0-0.6,0.343-1.199,0.942-1.627c0.515-0.344,1.286-0.172,1.886-0.172C98.971,41.817,99.143,41.987,99.399,42.159L99.399,42.159z"/>
<path fill-rule="evenodd" clip-rule="evenodd" fill="#EBE9E7" d="M69.237,41.817c0,0.6,0.085,1.113-0.086,1.627
	c-0.343,0.172-1.028-0.086-1.285,0.43c-0.085,0.086-0.171,0.256-0.085,0.428c-0.086,1.199,0,2.57,0,3.855v0.086l-0.086,0.6
	c-0.514,0.086-1.114,0-1.628,0l-0.085-0.086v-6.939c0.6,0,1.199,0.086,1.713,0c0,0.17,0,0.342,0.086,0.514
	c0.343-0.514,0.857-0.686,1.457-0.6V41.817L69.237,41.817z"/>
<path fill-rule="evenodd" clip-rule="evenodd" fill="#EBE9E7" d="M95.029,41.903l0.086,6.854c-0.6,0.086-1.2,0.086-1.8,0.086
	c-0.172-0.086,0.086-0.514-0.172-0.342c-0.428,0.342-0.942,0.514-1.456,0.342c-0.942-0.514-0.857-1.627-0.942-2.656
	c0.085-1.457,0-2.912,0.085-4.369c0.6,0,1.2,0,1.714,0l0.086,5.141c0.086,0.172,0.172,0.258,0.429,0.172
	c0.085,0,0.171-0.258,0.171-0.344v-4.969c0.429,0,0.942,0.086,1.457,0C94.771,41.817,95.029,41.731,95.029,41.903L95.029,41.903z"/>
<path fill-rule="evenodd" clip-rule="evenodd" fill="#EBE9E7" d="M48.585,42.331c0.429,0.6,0.429,1.371,0.429,2.143h-0.086
	l-1.542,0.086c-0.086-0.43,0.171-1.029-0.343-1.201c-0.171,0-0.257,0.172-0.343,0.258c0,0.258,0,0.6,0,0.771
	c-0.171,0.686,0.085,1.457,0,2.143c0.085,0.256-0.085,0.6,0.171,0.771c0.171,0,0.428-0.086,0.514-0.258
	c0.085-0.344,0-0.771,0.085-1.199c0.514,0,1.028,0.086,1.542,0.17c0,1.029,0.171,2.314-0.857,2.828
	c-0.771,0.086-1.799,0.344-2.399-0.17c-0.6-0.516-0.771-1.201-0.771-1.887c-0.085-1.285-0.171-2.826,0.171-4.027
	c0.257-0.6,0.857-0.941,1.542-0.941S48.157,41.817,48.585,42.331L48.585,42.331z"/>
<path fill-rule="evenodd" clip-rule="evenodd" fill="#EBE9E7" d="M56.897,41.903c-0.085,2.312,0,4.627,0,6.939
	c-0.6,0.172-1.285,0.086-1.799,0.086c-0.086-2.312,0-4.713-0.086-7.025c0.6-0.086,1.2,0.084,1.8,0H56.897L56.897,41.903z"/>
<path fill-rule="evenodd" clip-rule="evenodd" fill="#EBE9E7" d="M30.505,41.987c-0.085,0.943-0.171,1.801-0.257,2.742
	c-0.257,1.971-0.342,4.027-0.771,5.914c-0.171,0.256-0.257,0.514-0.514,0.686c-0.857,0.17-1.885,0.256-2.828,0.084
	c0-0.428-0.085-0.941-0.085-1.455l0.085-0.086c0.428,0,1.114,0.172,1.285-0.258c0.086-1.113-0.343-1.971-0.343-2.998
	c-0.257-0.602-0.343-1.115-0.428-1.715c-0.171-0.941-0.429-1.971-0.514-2.914h1.628c0.171,1.029,0.429,2.057,0.686,3
	c0,0.086,0.086,0.086,0.086,0.086c0.171-0.771,0.257-1.543,0.342-2.314c-0.085,0,0-0.084,0-0.17
	c0.086-0.172-0.085-0.686,0.257-0.602C29.563,41.987,30.077,41.903,30.505,41.987L30.505,41.987z"/>
<path fill-rule="evenodd" clip-rule="evenodd" fill="#EBE9E7" d="M173.521,39.846c0.514,0.084,0.942,0.6,1.199,1.113
	c0.257,1.027,0.343,2.398,0,3.428c-0.514,0.857-1.542,0.943-2.485,0.943h-0.085v3.512v0.086c-0.686,0-1.286,0-1.886-0.086h-0.085
	c0-2.998,0-5.998,0-8.996H173.521L173.521,39.846z M172.234,41.903c-0.085,0.514-0.085,1.027,0,1.455c0.086,0,0.258,0.086,0.343,0
	c0.429-0.256,0.258-0.855,0.258-1.199C172.749,41.903,172.492,41.987,172.234,41.903L172.234,41.903z"/>
<path fill-rule="evenodd" clip-rule="evenodd" fill="#EBE9E7" d="M9.512,42.073c0,0.516,0,1.029,0,1.543
	c-0.514,0.086-1.114,0-1.371,0.428c-0.171,1.201-0.086,2.4-0.086,3.6c0,0.428,0,0.943,0,1.371c-0.6,0.086-1.2,0.086-1.799,0
	c0-2.314,0.086-4.541,0-6.941l0.171-0.086h1.542c0.085,0.086-0.085,0.344,0.085,0.43c0.343-0.344,0.857-0.514,1.371-0.43
	L9.512,42.073L9.512,42.073z"/>
<path fill-rule="evenodd" clip-rule="evenodd" fill="#EBE9E7" d="M168.551,40.532c0.771,1.027,0.514,2.57,0.6,3.941
	c-0.257,1.541,0.514,3.77-1.286,4.369c-0.856,0.086-1.971,0.258-2.741-0.086c-0.857-0.428-0.857-1.541-0.942-2.398
	c0.085-1.971-0.258-3.855,0.343-5.57c0.6-1.113,1.971-0.857,3.084-0.857C167.95,40.016,168.293,40.188,168.551,40.532
	L168.551,40.532z M166.579,41.987c-0.085,0-0.171,0.086-0.171,0.172V46.7c0,0.172,0.171,0.258,0.343,0.172
	c0.171-0.086,0.171-0.256,0.171-0.428c0.086-1.457,0.086-2.914,0-4.371C166.837,41.987,166.665,41.987,166.579,41.987
	L166.579,41.987z"/>
<path fill-rule="evenodd" clip-rule="evenodd" fill="#EBE9E7" d="M14.396,42.159c0.085,2.314,0.085,4.713,0.085,6.855h-1.714
	c-0.171-0.086,0-0.258-0.085-0.428c-0.343,0.342-0.771,0.514-1.285,0.514c-0.343-0.086-0.771-0.344-0.943-0.771
	c-0.257-0.6-0.257-1.199-0.257-1.971v-4.285c0.514-0.086,1.114,0,1.714,0c0.085,1.629,0,3.428,0.085,5.143
	c0.085,0.17,0.257,0.256,0.428,0.17c0.171-0.17,0.257-0.256,0.257-0.514c0-1.541,0-3.256,0-4.799c0.429-0.086,0.942,0,1.371-0.086
	C14.225,42.073,14.396,41.987,14.396,42.159L14.396,42.159z"/>
<path fill-rule="evenodd" clip-rule="evenodd" fill="#EBE9E7" d="M64.952,39.331c0,0,0.086,0,0.086,0.086
	c0,1.885-0.086,3.857,0,5.742c-0.086,1.199,0,2.398-0.086,3.684c-0.514,0.086-1.199,0.086-1.714,0L63.153,48.5
	c-0.257,0-0.343,0.342-0.686,0.342s-0.857,0.086-1.114-0.256c-0.514-0.43-0.514-1.201-0.6-1.887c-0.086-1.199,0-2.484,0.085-3.77
	c0.085-0.514,0.428-1.027,0.942-1.199h0.686l0.6,0.342c0.171,0,0.171-0.17,0.171-0.256c0-0.857,0-1.801,0.086-2.486H64.952
	L64.952,39.331z M62.81,43.358c-0.086,0.086-0.257,0.172-0.257,0.344v1.971c0.085,0.514-0.257,1.285,0.343,1.543
	c0.085,0,0.171-0.172,0.257-0.258c0-1.113,0.085-2.314,0-3.428C63.067,43.444,62.981,43.274,62.81,43.358L62.81,43.358z"/>
<path fill-rule="evenodd" clip-rule="evenodd" fill="#EBE9E7" d="M73.436,42.588c0.428,0.855,0.257,1.971,0.343,2.998
	c-0.771,0-1.542,0-2.313,0c-0.171,0.258-0.086,0.6-0.086,0.943c0,0.256,0,0.6,0.343,0.771c0.171-0.086,0.343-0.172,0.428-0.344V46.1
	c0.514,0.086,1.114,0.086,1.543,0.172c0.085,0.943,0.085,1.885-0.6,2.4c-0.686,0.342-1.799,0.342-2.485,0
	c-0.771-0.43-0.943-1.287-0.943-2.143c0.086-1.371-0.343-2.914,0.343-4.113c0.6-0.857,1.885-0.771,2.742-0.514
	C73.007,41.987,73.264,42.331,73.436,42.588L73.436,42.588z M71.722,43.358c-0.428,0.172-0.257,0.771-0.257,1.115
	c0.257,0.086,0.428,0,0.685,0c0-0.258,0-0.6-0.085-0.857C72.064,43.444,71.893,43.274,71.722,43.358L71.722,43.358z"/>
<path fill-rule="evenodd" clip-rule="evenodd" fill="#EBE9E7" d="M123.992,42.417c0.428,1.027,0.257,2.227,0.257,3.342
	c-0.086,0.771,0.086,1.713-0.172,2.398c-0.085,0.344-0.428,0.686-0.771,0.771c-0.6,0.172-1.114-0.086-1.457-0.514
	c-0.086,0.941,0,2.057-0.086,2.998l-1.799-0.084c-0.086-3,0.085-5.998,0-8.826c0.257-0.258-0.086-0.6,0.171-0.686
	c0.515-0.086,1.2-0.086,1.714,0c0,0.17-0.086,0.342,0,0.514c0.257-0.172,0.429-0.514,0.771-0.514
	C123.135,41.559,123.735,41.903,123.992,42.417L123.992,42.417z M121.85,43.53v3.428c0.086,0.086,0.172,0.172,0.257,0.172
	c0.086-0.086,0.258-0.086,0.343-0.258c0.086-1.027,0-2.143,0-3.256l-0.085-0.172C122.192,43.274,121.936,43.444,121.85,43.53
	L121.85,43.53z"/>
<path fill-rule="evenodd" clip-rule="evenodd" fill="#EBE9E7" d="M118.765,42.417c0.686,1.199,0.343,2.914,0.429,4.369
	c0,0.771-0.257,1.543-1.028,1.887c-0.856,0.256-2.057,0.342-2.656-0.344c-0.856-0.943-0.515-2.314-0.6-3.514
	c0-1.113-0.086-2.398,1.114-2.912c0.514-0.258,1.199-0.258,1.799-0.172C118.165,41.903,118.594,42.073,118.765,42.417
	L118.765,42.417z M116.708,43.702v3.17c0,0.086,0.172,0.172,0.258,0.258c0.171-0.086,0.343-0.172,0.343-0.258v-3.256
	C117.223,43.358,116.794,43.444,116.708,43.702L116.708,43.702z"/>
<path fill-rule="evenodd" clip-rule="evenodd" fill="#EBE9E7" d="M19.194,42.844c0.343,0.857,0.171,1.885,0.257,2.828l-0.171,0.086
	l-2.228,0.086c-0.085,0.428,0,0.941,0.085,1.371c0.086,0.17,0.257,0.17,0.429,0.17c0.428-0.256,0.171-0.77,0.343-1.113
	c0.514,0,1.028,0.086,1.457,0.258c0.085,0.855,0.085,1.799-0.685,2.312c-0.515,0.344-1.286,0.172-1.971,0.172
	c-0.429-0.086-0.942-0.428-1.114-0.943c-0.429-1.199-0.257-2.656-0.257-4.027c0.085-0.686,0.085-1.541,0.857-1.971
	c0.686-0.256,1.542-0.256,2.228,0C18.766,42.245,18.937,42.502,19.194,42.844L19.194,42.844z M17.395,43.53
	c-0.171,0-0.257,0.086-0.257,0.172c0,0.342-0.171,0.686,0,1.027c0.257,0,0.429,0,0.686-0.086c0-0.342,0-0.684-0.085-0.941
	C17.738,43.53,17.566,43.53,17.395,43.53L17.395,43.53z"/>
<path fill-rule="evenodd" clip-rule="evenodd" fill="#EBE9E7" d="M41.045,42.417c0.342,0.428,0.514,0.857,0.514,1.457l0,0
	c0,1.285,0.086,2.742-0.085,3.941c-0.086,0.428-0.6,0.941-0.943,1.027c-0.514,0.172-1.114,0.086-1.628,0.172
	c-0.514-0.086-0.942-0.428-1.2-0.857c-0.514-1.371-0.343-3.17-0.343-4.627c0.086-0.686,0.514-1.285,1.114-1.543
	C39.246,41.817,40.531,41.559,41.045,42.417L41.045,42.417z M39.417,43.53c-0.171,0.086-0.171,0.172-0.257,0.344v2.742
	c0,0.17,0,0.428,0.172,0.6c0.171,0.086,0.342-0.086,0.428-0.172c0.086-1.029,0-2.229,0-3.256l-0.086-0.172
	C39.674,43.616,39.502,43.53,39.417,43.53L39.417,43.53z"/>
<path fill-rule="evenodd" clip-rule="evenodd" fill="#EBE9E7" d="M126.562,46.53v2.312c0,0-0.171,0.086-0.171,0h-1.285
	c-0.086-0.256,0-0.6-0.086-0.941c0.086-0.516,0-0.943,0-1.457c0.514-0.086,0.942,0,1.456-0.086L126.562,46.53L126.562,46.53z"/>
<path fill-rule="evenodd" clip-rule="evenodd" fill="#EBE9E7" d="M175.748,46.7c0,0.686,0,1.457,0,2.143l-0.086,0.086
	c-0.514,0-1.028-0.172-1.542,0l-0.257-0.086c0-0.686-0.086-1.457,0-2.143H175.748L175.748,46.7z"/>
<path fill-rule="evenodd" clip-rule="evenodd" fill="#EBE9E7" d="M152.44,34.104c9.426,0,17.053-7.627,17.053-17.052
	C169.493,7.626,161.866,0,152.44,0s-17.138,7.626-17.138,17.052C135.303,26.477,143.015,34.104,152.44,34.104L152.44,34.104z"/>
<path fill-rule="evenodd" clip-rule="evenodd" fill="#EBE9E7" d="M171.55,31.706h-0.857v2.57h-0.257v-2.57h-0.942v-0.344h2.057
	V31.706L171.55,31.706z M173.435,33.676l0.856-2.314h0.515v2.914h-0.343v-2.57l0,0l-0.942,2.57h-0.172l-0.942-2.57l0,0v2.57h-0.343
	v-2.914h0.514L173.435,33.676L173.435,33.676z"/>
</svg>
