<?xml version="1.0" encoding="utf-8"?>
<!-- Generator: Adobe Illustrator 15.1.0, SVG Export Plug-In . SVG Version: 6.00 Build 0)  -->
<!DOCTYPE svg PUBLIC "-//W3C//DTD SVG 1.1//EN" "http://www.w3.org/Graphics/SVG/1.1/DTD/svg11.dtd">
<svg version="1.1"
	 id="svg2" xmlns:svg="http://www.w3.org/2000/svg" xmlns:dc="http://purl.org/dc/elements/1.1/" sodipodi:docname="The Scout Association logo 2.svg" xmlns:inkscape="http://www.inkscape.org/namespaces/inkscape" xmlns:sodipodi="http://sodipodi.sourceforge.net/DTD/sodipodi-0.dtd" xmlns:rdf="http://www.w3.org/1999/02/22-rdf-syntax-ns#" inkscape:version="0.47 r22583" xmlns:cc="http://creativecommons.org/ns#"
	 xmlns="http://www.w3.org/2000/svg" xmlns:xlink="http://www.w3.org/1999/xlink" x="0px" y="0px" width="230.022px"
	 height="73.985px" viewBox="49.978 62.639 230.022 73.985" enable-background="new 49.978 62.639 230.022 73.985"
	 xml:space="preserve">
<defs>
	
	
		<inkscape:perspective  id="perspective10" inkscape:vp_z="744.09448 : 526.18109 : 1" sodipodi:type="inkscape:persp3d" inkscape:vp_x="0 : 526.18109 : 1" inkscape:vp_y="0 : 1000 : 0" inkscape:persp3d-origin="372.04724 : 350.78739 : 1">
		</inkscape:perspective>
	
		<inkscape:perspective  id="perspective2824" inkscape:vp_z="1 : 0.5 : 1" sodipodi:type="inkscape:persp3d" inkscape:vp_x="0 : 0.5 : 1" inkscape:vp_y="0 : 1000 : 0" inkscape:persp3d-origin="0.5 : 0.33333333 : 1">
		</inkscape:perspective>
</defs>
<sodipodi:namedview  id="base" bordercolor="#666666" pagecolor="#ffffff" borderopacity="1.0" inkscape:cx="20.512801" inkscape:pageopacity="0.0" inkscape:pageshadow="2" inkscape:zoom="1.4" inkscape:cy="53.491489" inkscape:document-units="px" inkscape:current-layer="layer1" showgrid="false" inkscape:window-width="968" inkscape:window-height="729" inkscape:window-x="50" inkscape:window-y="50" inkscape:window-maximized="0">
	</sodipodi:namedview>
<path id="path2832" fill="#FFFFFF" d="M87.463,136.457c0-0.105,0.677-3.338,1.502-7.186l1.501-6.994l1.76-0.311
	c2.351-0.416,5.104-0.27,6.292,0.334c3.236,1.646,2.402,7.699-1.33,9.647c-1.176,0.614-1.48,0.671-3.084,0.582
	c-0.979-0.055-1.939-0.169-2.135-0.255c-0.647-0.283-0.951,0.205-1.385,2.229l-0.429,2l-1.347,0.071
	C88.068,136.614,87.462,136.561,87.463,136.457L87.463,136.457z M95.148,130.836c2.34-0.979,3.253-4.976,1.568-6.861
	c-0.605-0.678-0.812-0.756-1.988-0.756c-0.722,0-1.435,0.121-1.583,0.271s-0.586,1.751-0.972,3.559l-0.701,3.288l0.512,0.415
	C92.604,131.253,94.056,131.292,95.148,130.836L95.148,130.836z M128.726,129.446l1.562-7.177l1.54-0.271
	c2.034-0.357,4.399-0.382,5.568-0.057c0.519,0.144,1.335,0.654,1.815,1.133c0.717,0.718,0.9,1.102,1.031,2.169
	c0.168,1.366-0.125,3.142-0.704,4.259c-0.506,0.979-2.333,2.49-3.396,2.809c-1.118,0.335-2.963,0.361-4.021,0.059
	c-1.035-0.297-1.342,0.052-1.698,1.924c-0.468,2.46-0.362,2.33-1.893,2.33h-1.366L128.726,129.446L128.726,129.446z M135.614,130.46
	c0.988-0.704,1.699-2.298,1.729-3.878c0.044-2.273-1.272-3.668-3.217-3.408c-0.519,0.07-1.079,0.269-1.245,0.441
	c-0.263,0.273-1.53,5.877-1.53,6.766C131.352,131.311,134.342,131.365,135.614,130.46L135.614,130.46z M69.034,132.592
	c-3.302-0.697-4.556-3.073-3.5-6.631c0.771-2.598,3.331-4.287,6.49-4.283c3.51,0.004,5.02,1.492,4.614,4.549l-0.152,1.144h-4.092
	c-4.446,0-4.828,0.108-4.533,1.284c0.575,2.291,3.675,3.115,6.73,1.789l1.009-0.438l-0.142,0.639
	c-0.078,0.352-0.189,0.814-0.247,1.029C75.02,132.4,70.973,133.002,69.034,132.592L69.034,132.592z M73.563,126.04
	c0.607-0.233,0.48-1.671-0.207-2.358c-1.188-1.188-3.904-0.568-4.759,1.086c-0.613,1.185-0.223,1.416,2.385,1.416
	C72.196,126.184,73.357,126.119,73.563,126.04z M117.865,132.586c-2.905-0.609-4.231-2.746-3.598-5.796
	c0.613-2.955,2.878-4.859,6.019-5.059c3.933-0.25,5.751,1.329,5.265,4.573l-0.16,1.065h-3.881c-2.134,0-4.049,0.065-4.256,0.144
	c-0.651,0.25-0.477,1.689,0.299,2.465c1.278,1.279,3.638,1.465,5.918,0.466l1.017-0.446l-0.159,0.881
	c-0.087,0.484-0.196,0.947-0.242,1.029C123.789,132.441,119.44,132.916,117.865,132.586L117.865,132.586z M122.766,125.18
	c0.197-2.378-3.416-2.918-5.052-0.756c-0.366,0.484-0.469,1.334-0.194,1.609c0.091,0.092,1.292,0.136,2.669,0.1l2.503-0.067
	L122.766,125.18L122.766,125.18z M145.111,132.423c-1.064-0.546-1.898-2.144-1.898-3.636c0-3.707,2.828-6.756,6.543-7.053
	c1.121-0.091,5.557,0.311,5.557,0.502c0,0.021-0.479,2.278-1.066,5.018c-0.586,2.738-1.066,5.006-1.067,5.039
	s-0.642,0.059-1.425,0.059c-1.107,0-1.423-0.078-1.423-0.355c0-0.484-0.553-0.446-1.648,0.113
	C147.291,132.818,146.088,132.924,145.111,132.423L145.111,132.423z M150.094,130.5c0.793-0.387,0.853-0.506,1.328-2.657
	c0.854-3.87,0.861-3.942,0.414-4.39c-0.307-0.307-0.681-0.379-1.543-0.296c-2.483,0.238-4.113,2.269-4.113,5.123
	c0,1.353,0.066,1.561,0.665,2.076C147.643,131.043,148.872,131.098,150.094,130.5L150.094,130.5z M172.336,132.594
	c-1.429-0.256-2.629-0.995-3.251-2.002c-0.749-1.213-0.687-3.914,0.132-5.555c1.067-2.143,3.327-3.365,6.205-3.355
	c2.927,0.01,4.564,1.286,4.561,3.553c-0.006,2.26,0.241,2.135-4.234,2.14c-2.171,0.002-4.096,0.099-4.278,0.214
	c-0.386,0.244-0.228,1.742,0.243,2.311c1.004,1.209,3.953,1.512,5.96,0.613c1.015-0.455,1.125-0.465,1.104-0.104
	c-0.063,1.086-0.374,1.555-1.22,1.848C176.367,132.668,173.709,132.84,172.336,132.594L172.336,132.594z M177.158,125.644
	c0.325-0.714-0.045-1.683-0.843-2.205c-0.447-0.293-0.931-0.367-1.835-0.28c-1.031,0.1-1.352,0.254-2.012,0.975
	c-0.742,0.81-0.983,1.537-0.628,1.893c0.087,0.088,1.264,0.158,2.614,0.158C176.782,126.184,176.926,126.155,177.158,125.644
	L177.158,125.644z M185.443,132.682c-1.045-0.371-1.467-0.742-1.926-1.691c-1.006-2.078-0.312-5.416,1.535-7.377
	c1.367-1.453,2.359-1.818,4.938-1.818c1.262-0.001,2.375-0.082,2.473-0.18s0.354-1.006,0.569-2.016l0.391-1.838l1.348-0.07
	c0.741-0.039,1.349,0.029,1.349,0.152c0,0.247-2.801,13.426-2.996,14.094c-0.164,0.566-2.936,0.622-2.936,0.059
	c0-0.486-0.627-0.446-1.514,0.098C187.904,132.566,186.061,132.9,185.443,132.682z M189.818,130.531
	c0.933-0.444,1.012-0.629,1.797-4.178c0.383-1.73,0.445-2.404,0.249-2.641c-0.391-0.471-1.62-0.646-2.627-0.375
	c-2.042,0.549-3.173,2.26-3.19,4.823c-0.01,1.489,0.043,1.669,0.654,2.194C187.495,131.039,188.621,131.103,189.818,130.531z
	 M54.045,132.187c-0.631-0.312-0.888-0.335-1.242-0.113c-0.425,0.266-2.825,0.405-2.825,0.165c0-0.134,2.805-13.271,3.002-14.061
	c0.119-0.477,0.28-0.535,1.5-0.535h1.367l-0.321,1.365c-0.176,0.75-0.322,1.715-0.325,2.143l-0.004,0.78l2.076-0.144
	c1.734-0.119,2.211-0.072,2.901,0.289c1.336,0.697,1.903,1.773,1.901,3.609c-0.002,1.986-0.292,3.021-1.25,4.455
	c-1.058,1.582-2.659,2.438-4.561,2.438C55.419,132.578,54.517,132.42,54.045,132.187L54.045,132.187z M57.551,130.268
	c1.146-0.854,1.561-1.891,1.561-3.9c0-1.68-0.054-1.886-0.649-2.482c-0.554-0.555-0.845-0.649-1.985-0.649
	c-1.053,0-1.417,0.101-1.723,0.479c-0.213,0.264-0.645,1.776-0.96,3.36c-0.637,3.205-0.585,3.455,0.78,3.814
	C55.492,131.13,56.744,130.869,57.551,130.268L57.551,130.268z M210.563,132.088c-1.04-1.04-0.177-4.591,1.304-5.359
	c1.02-0.529,3.359-0.518,3.895,0.018c0.977,0.979,0.051,4.75-1.343,5.471C213.324,132.783,211.188,132.711,210.563,132.088
	L210.563,132.088z M237.604,132.135c-1.123-0.91-0.481-4.217,1.031-5.322c0.877-0.641,3.289-0.664,3.98-0.038
	c0.941,0.852,0.335,4.107-0.969,5.204C240.706,132.77,238.492,132.855,237.604,132.135L237.604,132.135z M264.444,132.115
	c-0.903-0.904-0.362-4.239,0.842-5.186c0.669-0.527,2.278-0.781,3.429-0.543c1.182,0.244,1.494,0.99,1.162,2.785
	c-0.49,2.647-1.311,3.418-3.642,3.418C265.235,132.59,264.805,132.476,264.444,132.115z M102.882,132.209
	c0-0.092,0.48-2.398,1.068-5.127c0.587-2.729,1.067-5.008,1.067-5.064c0-0.058,0.587-0.104,1.305-0.104
	c1.238,0,1.305,0.03,1.305,0.6c0,0.876,0.589,0.965,1.852,0.281c0.613-0.332,1.529-0.682,2.038-0.775
	c0.916-0.17,0.922-0.166,0.759,0.482c-0.09,0.359-0.227,0.968-0.304,1.353c-0.131,0.655-0.195,0.69-0.997,0.558
	c-0.92-0.152-3.313,0.219-3.662,0.568c-0.117,0.116-0.554,1.797-0.971,3.732l-0.758,3.521l-1.351,0.07
	C103.49,132.344,102.882,132.301,102.882,132.209L102.882,132.209z M157.283,131.863c0.07-0.268,0.58-2.617,1.135-5.219l1.006-4.73
	h1.41c1.156,0,1.385,0.063,1.273,0.355c-0.182,0.473,0.062,1.067,0.438,1.067c0.164,0,0.768-0.259,1.338-0.575
	c1.24-0.687,2.817-1.036,2.817-0.623c0,0.152-0.114,0.729-0.253,1.281l-0.253,1.006h-1.597c-0.878,0-1.932,0.139-2.343,0.309
	c-0.81,0.336-0.831,0.401-1.88,5.542l-0.424,2.076h-1.398C157.259,132.353,157.165,132.316,157.283,131.863L157.283,131.863z
	 M182.429,107.681c-2.349-0.248-4.49-0.774-5.738-1.411c-1.249-0.639-2.51-2.167-2.903-3.523c-0.434-1.488-0.366-5.261,0.146-8.234
	c0.47-2.73,4.806-23.148,4.944-23.287c0.051-0.051,1.85-0.063,3.997-0.027l3.904,0.065l-1.493,6.88
	c-3.926,18.094-4.207,20.066-3.104,21.732c0.301,0.453,1.048,1.06,1.708,1.387c0.994,0.493,1.604,0.598,3.98,0.683
	c5.914,0.211,8.138-0.923,9.432-4.809c0.273-0.823,1.656-6.961,3.073-13.641c1.417-6.68,2.626-12.194,2.686-12.254
	c0.06-0.06,1.862-0.08,4.006-0.043l3.897,0.065l-2.201,10.438c-1.21,5.741-2.52,11.696-2.91,13.233
	c-2.113,8.317-4.979,11.38-11.707,12.512C192.131,107.785,184.801,107.932,182.429,107.681L182.429,107.681z M63.856,107.537
	c-4.518-0.626-6.438-1.699-7.275-4.062c-0.342-0.967-0.413-4.594-0.119-6.057l0.179-0.889h3.968h3.968l-0.077,1.72
	c-0.091,2.06,0.397,3.063,1.792,3.683c1.33,0.59,9.457,0.725,11.306,0.188c2.182-0.635,3.411-1.995,4.084-4.523
	c0.477-1.787,0.413-3.26-0.174-4.005c-1.107-1.407-2.718-1.739-9.864-2.033c-7.239-0.298-9.869-0.906-11.309-2.617
	c-0.797-0.947-0.965-1.938-0.799-4.722c0.254-4.289,1.478-7.723,3.518-9.88c1.495-1.581,3.334-2.515,6.139-3.117
	c2.909-0.625,15.263-0.641,17.496-0.023c4.153,1.149,5.602,2.958,5.468,6.828l-0.07,2.014l-3.944,0.065L84.2,80.17l-0.109-1.312
	c-0.21-2.531-1.226-2.969-6.88-2.969c-4.235,0-5.478,0.225-7.068,1.276c-1.202,0.796-2.15,2.738-2.311,4.733
	c-0.258,3.215,0.483,3.508,10.021,3.958c7.088,0.334,9.266,0.842,10.827,2.526c1.297,1.397,1.513,2.118,1.479,4.944
	c-0.09,7.632-3.576,12.158-10.527,13.67c-1.898,0.413-3.264,0.502-8.659,0.565C67.45,107.603,64.248,107.592,63.856,107.537
	L63.856,107.537z M103.608,107.422c-2.957-0.383-4.668-1.067-6.061-2.424c-1.017-0.99-1.347-1.512-1.674-2.646
	c-1.234-4.281,0.976-17.017,4.035-23.26c2.296-4.684,5.084-6.769,10.685-7.99c1.989-0.433,11.831-0.425,13.76,0.012
	c3.454,0.783,5.157,1.906,6.135,4.047c0.395,0.864,0.497,1.566,0.501,3.457c0.004,1.305-0.08,2.879-0.186,3.499l-0.193,1.127h-3.959
	h-3.959l0.079-1.957c0.07-1.734,0.016-2.052-0.478-2.788c-1.039-1.55-1.891-1.779-6.6-1.779c-4.067,0-4.179,0.013-5.505,0.665
	c-2.891,1.419-3.74,3.394-5.891,13.688c-0.948,4.535-1.059,7.299-0.343,8.541c0.303,0.526,0.911,1.047,1.661,1.424
	c1.118,0.561,1.395,0.592,5.097,0.592c3.136,0,4.154-0.083,5.119-0.42c2.009-0.701,3.26-2.402,4.034-5.481l0.395-1.571h4.009h4.009
	l-0.147,0.652c-0.395,1.753-1.776,5.402-2.495,6.595c-2.843,4.715-7.181,6.313-16.939,6.241
	C106.737,107.631,104.449,107.53,103.608,107.422L103.608,107.422z M142.032,107.428c-4.521-0.563-6.802-1.816-7.972-4.375
	c-1.117-2.442-0.984-5.903,0.505-13.166c2.248-10.962,4.36-15.003,9.004-17.223c3.358-1.604,7.067-2.123,13.757-1.922
	c6.097,0.183,8.648,0.785,10.607,2.505c2.157,1.895,2.607,5.444,1.514,11.935c-0.766,4.538-2.198,10.321-3.202,12.923
	c-1.99,5.155-5.015,7.762-10.339,8.907C153.42,107.547,145.007,107.799,142.032,107.428L142.032,107.428z M154.41,101.173
	c3.298-1.212,4.642-3.933,6.51-13.185c1.99-9.854,0.893-11.546-7.359-11.353c-3.5,0.082-3.638,0.104-5.165,0.856
	c-1.681,0.827-2.352,1.541-3.401,3.613c-1.173,2.316-3.443,12.466-3.439,15.381c0.002,2.776,0.854,4.091,3.138,4.845
	C146.398,101.895,152.725,101.792,154.41,101.173L154.41,101.173z M220.646,107.458c-4.141-0.66-5.781-2.354-5.785-5.976
	c-0.002-1.773,0.348-3.686,2.6-14.268c1.049-4.926,1.907-9.211,1.907-9.521c0-0.692-0.489-0.849-2.669-0.853
	c-1.125-0.002-1.6-0.091-1.594-0.3c0.004-0.163,0.248-1.417,0.544-2.788l0.537-2.491l2.175-0.122
	c1.196-0.067,2.283-0.229,2.414-0.361c0.132-0.132,0.606-1.979,1.055-4.106c0.447-2.127,0.863-3.916,0.922-3.975
	s1.863-0.078,4.008-0.042l3.9,0.065l-0.828,3.884c-0.806,3.774-0.816,3.894-0.382,4.211c0.354,0.259,1.815,0.327,7.061,0.327
	c6.187,0,6.606,0.027,6.493,0.415c-0.138,0.478-1.098,4.977-1.098,5.146c0,0.062-3.153,0.144-7.008,0.182
	c-5.451,0.054-7.05,0.139-7.199,0.379c-0.338,0.549-4.543,20.769-4.539,21.829c0.008,2.114,0.992,2.761,3.963,2.604
	c1.72-0.09,2.111-0.196,2.982-0.809c1.068-0.75,1.918-2.022,2.32-3.473l0.246-0.889h3.436h3.436l-0.154,0.652
	c-0.348,1.477-1.589,4.369-2.438,5.682c-1.422,2.2-3.22,3.473-6.02,4.261C229.486,107.531,222.523,107.758,220.646,107.458
	L220.646,107.458z M250.39,107.445c-2.379-0.299-3.927-0.898-5.087-1.967c-1.445-1.332-1.848-2.793-1.663-6.04
	c0.076-1.341,0.204-2.544,0.284-2.674c0.087-0.141,1.713-0.235,4.039-0.235h3.893l-0.037,1.781
	c-0.042,2.077,0.324,2.782,1.847,3.557c0.846,0.43,1.403,0.475,5.916,0.475c4.259,0,5.146-0.063,6.106-0.435
	c2.155-0.831,3.587-3.403,3.609-6.485c0.014-1.764-0.515-2.481-2.218-3.018c-1.685-0.53-2.367-0.602-8.091-0.846
	c-6.888-0.293-9.284-0.785-10.877-2.234c-1.271-1.156-1.66-3.037-1.232-5.971c1.086-7.469,3.721-10.835,9.499-12.14
	c2.702-0.61,15.005-0.606,17.611,0.005c2.819,0.662,4.536,1.991,5.284,4.091c0.215,0.604,0.346,0.767,0.368,0.461
	c0.021-0.286,0.12-0.144,0.25,0.356c0.265,1.018-0.006,4.708-0.277,3.796c-0.114-0.385-0.185-0.447-0.2-0.178
	c-0.021,0.378-0.381,0.415-4.009,0.415h-3.985l0.092-0.788c0.152-1.308-0.495-2.481-1.661-3.011
	c-0.876-0.397-1.567-0.462-4.979-0.467c-4.618-0.006-6.012,0.233-7.358,1.262c-1.696,1.297-2.905,4.67-2.315,6.459
	c0.506,1.534,1.958,1.866,9.77,2.235c2.832,0.134,5.979,0.402,6.992,0.596c4.437,0.849,6.131,3.46,5.516,8.504
	c-0.846,6.954-4.08,10.668-10.504,12.06c-1.787,0.388-3.301,0.485-8.576,0.554C254.871,107.609,251.27,107.557,250.39,107.445
	L250.39,107.445z"/>
</svg>
